<svg xmlns="http://www.w3.org/2000/svg" width="836.613" height="757.421" viewBox="0 0 836.613 757.421"><g transform="translate(-56.11 -67.75)"><g transform="translate(130.91 104.89)"><path d="M141.042,118.731A118.62,118.62,0,0,1,167.587,100C275.471,44.738,370.3,157.948,410.763,245.245c18.945,40.838,36.523,86.307,74.772,109.926,48.732,30.187,106.684,18.651,159.037,34.544C699.3,406.366,748.562,462.508,749.3,521.26c.863,66.5-61.826,94.18-116.452,108.284A469.2,469.2,0,0,1,391,628.491C235.222,585.527,119.865,463.413,95.341,302,85.868,239.6,92.394,163.989,141.042,118.731Z" transform="translate(-91.644 -85.393)" fill="#ff725e"/><path d="M141.042,118.731A118.62,118.62,0,0,1,167.587,100C275.471,44.738,370.3,157.948,410.763,245.245c18.945,40.838,36.523,86.307,74.772,109.926,48.732,30.187,106.684,18.651,159.037,34.544C699.3,406.366,748.562,462.508,749.3,521.26c.863,66.5-61.826,94.18-116.452,108.284A469.2,469.2,0,0,1,391,628.491C235.222,585.527,119.865,463.413,95.341,302,85.868,239.6,92.394,163.989,141.042,118.731Z" transform="translate(-91.644 -85.393)" fill="#fff" opacity="0.9"/></g><g transform="translate(56.11 777.512)"><ellipse cx="408.15" cy="23.829" rx="408.15" ry="23.829" fill="#f5f5f5"/></g><g transform="translate(73.94 602.935)"><path d="M144.77,396.069c-3.284-5.41-8.673-.716-8.673-.716.779-10.336-8.736-17.388-8.736-17.388s11.052,0,12.63-10.525-3.852-5.621-8.9-5.7-10.336,14.735-3.684,23.008,4.884,22.5-10.525,36.144a30.039,30.039,0,0,0-8.041,12.63c1.158-12.525,1.81-30.187-1.874-41.975-6.315-20.019,5.684-25.408,9.136-35.428s-9.136-18.482-9.136-18.482,11.83-5.389,6.063-11.557-17.809-5.41-17.809,2.631,8.1,11.136,8.1,11.136,9.241,9.62,9.241,14.63-9.241,15.788-9.241,15.788,4.21-9.22-4.21-9.62-11.157,10.778-7.7,15.788,9.241.758,9.241.758a97.4,97.4,0,0,0,2.652,17.325c.863,2.884.463,14.188-.274,25.934a29.113,29.113,0,0,0-7.494-11.136c-15.409-13.641-17.177-27.829-10.525-36.123s1.389-23.156-3.663-23.029-10.525-4.821-8.9,5.726,12.63,10.525,12.63,10.525-9.494,7.073-8.736,17.388c0,0-5.389-4.673-8.652.716-5.852,9.62,7.7,15.6,9.978,10.862,0,0,28.713,20.314,21.787,49.6l1.6,2.379c-.189,2.358-.337,3.768-.337,3.768l2.252-.968,2.568,3.789a84.641,84.641,0,0,0,.653,12.63l6.863-10.146c-6.968-29.155,21.745-49.511,21.745-49.511C137.066,411.647,150.622,405.69,144.77,396.069Z" transform="translate(-62.757 -321.988)" fill="#ff725e"/><path d="M144.77,396.069c-3.284-5.41-8.673-.716-8.673-.716.779-10.336-8.736-17.388-8.736-17.388s11.052,0,12.63-10.525-3.852-5.621-8.9-5.7-10.336,14.735-3.684,23.008,4.884,22.5-10.525,36.144a30.039,30.039,0,0,0-8.041,12.63c1.158-12.525,1.81-30.187-1.874-41.975-6.315-20.019,5.684-25.408,9.136-35.428s-9.136-18.482-9.136-18.482,11.83-5.389,6.063-11.557-17.809-5.41-17.809,2.631,8.1,11.136,8.1,11.136,9.241,9.62,9.241,14.63-9.241,15.788-9.241,15.788,4.21-9.22-4.21-9.62-11.157,10.778-7.7,15.788,9.241.758,9.241.758a97.4,97.4,0,0,0,2.652,17.325c.863,2.884.463,14.188-.274,25.934a29.113,29.113,0,0,0-7.494-11.136c-15.409-13.641-17.177-27.829-10.525-36.123s1.389-23.156-3.663-23.029-10.525-4.821-8.9,5.726,12.63,10.525,12.63,10.525-9.494,7.073-8.736,17.388c0,0-5.389-4.673-8.652.716-5.852,9.62,7.7,15.6,9.978,10.862,0,0,28.713,20.314,21.787,49.6l1.6,2.379c-.189,2.358-.337,3.768-.337,3.768l2.252-.968,2.568,3.789a84.641,84.641,0,0,0,.653,12.63l6.863-10.146c-6.968-29.155,21.745-49.511,21.745-49.511C137.066,411.647,150.622,405.69,144.77,396.069Z" transform="translate(-62.757 -321.988)" fill="#ff725e" opacity="0.2"/><g transform="translate(3.472)" opacity="0.3"><path d="M144.77,396.069c-3.284-5.41-8.673-.716-8.673-.716.779-10.336-8.736-17.388-8.736-17.388s11.052,0,12.63-10.525-3.852-5.621-8.9-5.7-10.336,14.735-3.684,23.008,4.884,22.5-10.525,36.144a30.039,30.039,0,0,0-8.041,12.63c1.158-12.525,1.81-30.187-1.874-41.975-6.315-20.019,5.684-25.408,9.136-35.428s-9.136-18.482-9.136-18.482,11.83-5.389,6.063-11.557-17.809-5.41-17.809,2.631,8.1,11.136,8.1,11.136,9.241,9.62,9.241,14.63-9.241,15.788-9.241,15.788,4.21-9.22-4.21-9.62-11.157,10.778-7.7,15.788,9.241.758,9.241.758a97.4,97.4,0,0,0,2.652,17.325c.863,2.884.463,14.188-.274,25.934a29.113,29.113,0,0,0-7.494-11.136c-15.409-13.641-17.177-27.829-10.525-36.123s1.389-23.156-3.663-23.029-10.525-4.821-8.9,5.726,12.63,10.525,12.63,10.525-9.494,7.073-8.736,17.388c0,0-5.389-4.673-8.652.716-5.852,9.62,7.7,15.6,9.978,10.862,0,0,28.713,20.314,21.787,49.6l1.6,2.379c-.189,2.358-.337,3.768-.337,3.768l2.252-.968,2.568,3.789a84.641,84.641,0,0,0,.653,12.63l6.863-10.146c-6.968-29.155,21.745-49.511,21.745-49.511C137.066,411.647,150.622,405.69,144.77,396.069Z" transform="translate(-66.229 -321.988)" fill="#fff"/><path d="M144.77,396.069c-3.284-5.41-8.673-.716-8.673-.716.779-10.336-8.736-17.388-8.736-17.388s11.052,0,12.63-10.525-3.852-5.621-8.9-5.7-10.336,14.735-3.684,23.008,4.884,22.5-10.525,36.144a30.039,30.039,0,0,0-8.041,12.63c1.158-12.525,1.81-30.187-1.874-41.975-6.315-20.019,5.684-25.408,9.136-35.428s-9.136-18.482-9.136-18.482,11.83-5.389,6.063-11.557-17.809-5.41-17.809,2.631,8.1,11.136,8.1,11.136,9.241,9.62,9.241,14.63-9.241,15.788-9.241,15.788,4.21-9.22-4.21-9.62-11.157,10.778-7.7,15.788,9.241.758,9.241.758a97.4,97.4,0,0,0,2.652,17.325c.863,2.884.463,14.188-.274,25.934a29.113,29.113,0,0,0-7.494-11.136c-15.409-13.641-17.177-27.829-10.525-36.123s1.389-23.156-3.663-23.029-10.525-4.821-8.9,5.726,12.63,10.525,12.63,10.525-9.494,7.073-8.736,17.388c0,0-5.389-4.673-8.652.716-5.852,9.62,7.7,15.6,9.978,10.862,0,0,28.713,20.314,21.787,49.6l1.6,2.379c-.189,2.358-.337,3.768-.337,3.768l2.252-.968,2.568,3.789a84.641,84.641,0,0,0,.653,12.63l6.863-10.146c-6.968-29.155,21.745-49.511,21.745-49.511C137.066,411.647,150.622,405.69,144.77,396.069Z" transform="translate(-66.229 -321.988)" fill="#fff" opacity="0.2"/></g><path d="M139.127,454.3H73.344L66.25,382.26h79.971Z" transform="translate(-62.735 -255.383)" fill="#ff725e"/><path d="M139.127,454.3H73.344L66.25,382.26h79.971Z" transform="translate(-62.735 -255.383)" fill="#fff" opacity="0.5"/><rect width="87.002" height="15.893" transform="translate(0 118.92)" fill="#ff725e"/><rect width="87.002" height="15.893" transform="translate(0 118.92)" fill="#fff" opacity="0.6"/></g><g transform="translate(697.949 713.16)"><path d="M417.548,380.813l-2.947-4.084a5.642,5.642,0,0,0-4.568-2.379H389.362a4.989,4.989,0,0,0-4.315,2.379l-2.463,4.084a4.947,4.947,0,0,1-4.21,2.4H366.038a4.989,4.989,0,0,0-5.01,5.368l4,69.067a5.747,5.747,0,0,0,5.621,5.389h97.7a5.01,5.01,0,0,0,5.031-5.389l-4-69.067a5.726,5.726,0,0,0-5.642-5.368h-41.7A5.663,5.663,0,0,1,417.548,380.813Z" transform="translate(-361.013 -374.35)" fill="#ff725e"/><path d="M417.548,380.813l-2.947-4.084a5.642,5.642,0,0,0-4.568-2.379H389.362a4.989,4.989,0,0,0-4.315,2.379l-2.463,4.084a4.947,4.947,0,0,1-4.21,2.4H366.038a4.989,4.989,0,0,0-5.01,5.368l4,69.067a5.747,5.747,0,0,0,5.621,5.389h97.7a5.01,5.01,0,0,0,5.031-5.389l-4-69.067a5.726,5.726,0,0,0-5.642-5.368h-41.7A5.663,5.663,0,0,1,417.548,380.813Z" transform="translate(-361.013 -374.35)" fill="#fff" opacity="0.5"/><path d="M468.228,381.691H378.615a7.515,7.515,0,0,0-7.368,6.694l-5.389,59.826a6.062,6.062,0,0,0,6.168,6.715h89.612a7.515,7.515,0,0,0,7.368-6.715l5.389-59.826a6.042,6.042,0,0,0-6.168-6.694Z" transform="translate(-355.698 -366.24)" fill="#ff725e"/><path d="M468.228,381.691H378.615a7.515,7.515,0,0,0-7.368,6.694l-5.389,59.826a6.062,6.062,0,0,0,6.168,6.715h89.612a7.515,7.515,0,0,0,7.368-6.715l5.389-59.826a6.042,6.042,0,0,0-6.168-6.694Z" transform="translate(-355.698 -366.24)" fill="#fff" opacity="0.7"/></g><g transform="translate(418.58 678.217)"><rect width="127.903" height="89.318" transform="translate(3.831 18.777)" fill="#263238"/><rect width="101.885" height="29.913" rx="1.65" transform="translate(34.712 93.696)" fill="#ff725e"/><rect width="101.885" height="29.913" rx="1.65" transform="translate(34.712 93.696)" opacity="0.2"/><rect width="101.885" height="29.913" rx="1.65" transform="translate(0 93.696)" fill="#ff725e"/><path d="M278.56,412.685a6.315,6.315,0,1,1-6.315-6.315A6.315,6.315,0,0,1,278.56,412.685Z" transform="translate(-186.717 -304.022)" fill="#f5f5f5" opacity="0.3"/><circle cx="3.2" cy="3.2" r="3.2" transform="translate(82.371 105.463)" fill="#ff725e"/><rect width="7.157" height="7.157" transform="translate(64.941 105.085)" fill="#f5f5f5" opacity="0.3"/><rect width="101.885" height="29.913" rx="1.65" transform="translate(34.712 62.478)" fill="#ff725e"/><rect width="101.885" height="29.913" rx="1.65" transform="translate(34.712 62.478)" opacity="0.2"/><rect width="101.885" height="29.913" rx="1.65" transform="translate(0 62.478)" fill="#ff725e"/><path d="M278.56,397.845a6.315,6.315,0,1,1-6.315-6.315,6.315,6.315,0,0,1,6.315,6.315Z" transform="translate(-186.717 -320.421)" fill="#f5f5f5" opacity="0.3"/><path d="M273.819,396.222A3.2,3.2,0,1,1,270.746,393,3.2,3.2,0,0,1,273.819,396.222Z" transform="translate(-185.07 -318.798)" fill="#ff725e"/><rect width="7.157" height="7.157" transform="translate(64.941 73.845)" fill="#f5f5f5" opacity="0.3"/><rect width="101.885" height="29.913" rx="1.65" transform="translate(34.712 31.239)" fill="#ff725e"/><rect width="101.885" height="29.913" rx="1.65" transform="translate(34.712 31.239)" opacity="0.2"/><rect width="101.885" height="29.913" rx="1.65" transform="translate(0 31.239)" fill="#ff725e"/><path d="M278.56,383.005a6.315,6.315,0,1,1-6.315-6.315A6.315,6.315,0,0,1,278.56,383.005Z" transform="translate(-186.717 -336.82)" fill="#f5f5f5" opacity="0.3"/><path d="M273.819,381.37a3.2,3.2,0,1,1-3.179-3.2,3.2,3.2,0,0,1,3.179,3.2Z" transform="translate(-185.07 -335.185)" fill="#ff725e"/><rect width="7.157" height="7.157" transform="translate(64.941 42.606)" fill="#f5f5f5" opacity="0.3"/><rect width="101.885" height="29.913" rx="1.65" transform="translate(34.712)" fill="#ff725e"/><rect width="101.885" height="29.913" rx="1.65" transform="translate(34.712)" opacity="0.2"/><rect width="101.885" height="29.913" rx="1.65" fill="#ff725e"/><path d="M278.56,368.165a6.315,6.315,0,1,1-6.315-6.315A6.315,6.315,0,0,1,278.56,368.165Z" transform="translate(-186.717 -353.219)" fill="#f5f5f5" opacity="0.3"/><path d="M273.819,366.53a3.2,3.2,0,1,1-3.179-3.2,3.2,3.2,0,0,1,3.179,3.2Z" transform="translate(-185.07 -351.584)" fill="#ff725e"/><rect width="7.157" height="7.157" transform="translate(64.941 11.367)" fill="#f5f5f5" opacity="0.3"/><rect width="127.903" height="41.617" transform="translate(118.388 66.457)" fill="#263238"/><rect width="101.885" height="29.913" rx="1.65" transform="translate(149.249 93.696)" fill="#ff725e"/><rect width="101.885" height="29.913" rx="1.65" transform="translate(149.249 93.696)" opacity="0.2"/><rect width="101.885" height="29.913" rx="1.65" transform="translate(114.557 93.696)" fill="#ff725e"/><path d="M332.97,412.685a6.315,6.315,0,1,1-6.315-6.315A6.315,6.315,0,0,1,332.97,412.685Z" transform="translate(-126.59 -304.022)" fill="#f5f5f5" opacity="0.3"/><path d="M328.239,411.05a3.2,3.2,0,1,1-3.2-3.2,3.2,3.2,0,0,1,3.2,3.2Z" transform="translate(-124.933 -302.387)" fill="#ff725e"/><rect width="7.157" height="7.157" transform="translate(179.477 105.085)" fill="#f5f5f5" opacity="0.3"/><rect width="101.885" height="29.913" rx="1.65" transform="translate(149.249 62.478)" fill="#ff725e"/><rect width="101.885" height="29.913" rx="1.65" transform="translate(149.249 62.478)" opacity="0.2"/><rect width="101.885" height="29.913" rx="1.65" transform="translate(114.557 62.478)" fill="#ff725e"/><path d="M332.97,397.845a6.315,6.315,0,1,1-6.315-6.315,6.315,6.315,0,0,1,6.315,6.315Z" transform="translate(-126.59 -320.421)" fill="#f5f5f5" opacity="0.3"/><path d="M328.239,396.21a3.2,3.2,0,1,1-3.2-3.2A3.2,3.2,0,0,1,328.239,396.21Z" transform="translate(-124.933 -318.786)" fill="#ff725e"/><rect width="7.157" height="7.157" transform="translate(179.477 73.845)" fill="#f5f5f5" opacity="0.3"/></g><g transform="translate(117.389 225.049)"><path d="M181.772,418.893,168.51,421.25l-5.452-18.1-4.968-16.63,15.3-5.347,4.442,19.977Z" transform="translate(-4.695 121.298)" fill="#e4897b"/><path d="M177.909,401.492l-14.8,1.958-5.01-16.8,15.3-5.431Z" transform="translate(-4.684 121.353)" opacity="0.2"/><path d="M136.512,422.466H123.04l-2.21-18.988-2-17.346,16-2.652.905,20.63Z" transform="translate(-48.08 123.851)" fill="#e4897b"/><path d="M135.734,404.256l-14.9-.653-2-17.409,16-2.694Z" transform="translate(-48.08 123.873)" opacity="0.2"/><path d="M157.245,434.635a22.206,22.206,0,0,0-7.2-3.915h0s-7.831-7.768-11.6-31.155L128.2,396.891a8.715,8.715,0,0,0-9.325,3.642,4.442,4.442,0,0,0-.653,1.347,54.158,54.158,0,0,0-1.095,7.6c-1.031,7.915-.147,25.682-.147,25.682h1.852l.737-16.125c.274-5.473,4.463.947,5.663,6.841s3.747,12.167,15.746,12.462C154.971,438.613,160.781,438.066,157.245,434.635Z" transform="translate(-50.519 138.395)" fill="#263238"/><path d="M199.745,433.9a22.206,22.206,0,0,0-7.2-3.915h0s-7.831-7.768-11.6-31.155L170.7,396.131a8.715,8.715,0,0,0-9.325,3.642,4.442,4.442,0,0,0-.653,1.347,54.165,54.165,0,0,0-1.095,7.6c-1.031,7.915-.147,25.682-.147,25.682h1.852l.737-16.125c.274-5.473,4.463.947,5.663,6.841s3.747,12.167,15.746,12.462C197.471,437.874,203.281,437.327,199.745,433.9Z" transform="translate(-3.554 137.555)" fill="#263238"/><path d="M238.846,554.659l-21.829,3.852c-22.019-54.879-37.681-100.685-48.753-138.7-5.957-20.524-10.925-38.754-14.5-54.942l.674,59.742V559.185H132.919c-53.911-256.817-15.7-315.338-15.7-315.338L181.8,233.09a292.134,292.134,0,0,1,5.41,36.249l2.9,21.408,25.261,130.24Z" transform="translate(-64.379 -42.339)" fill="#ff725e"/><g transform="translate(39.701 190.751)" opacity="0.2"><path d="M238.846,554.659l-21.829,3.852c-22.019-54.879-37.681-100.685-48.753-138.7-5.957-20.524-10.925-38.754-14.5-54.942l.674,59.742V559.185H132.919c-53.911-256.817-15.7-315.338-15.7-315.338L181.8,233.09a292.134,292.134,0,0,1,5.41,36.249l2.9,21.408,25.261,130.24Z" transform="translate(-104.08 -233.09)"/></g><path d="M177.25,221.3l21.766-21.514s.758-5.768,2.863-7.368,17.051-7.031,18.946-5.81,4.379,13.262,1.831,15.472-16.146,5.031-17.535,4.8l-23.556,27.976Z" transform="translate(16.478 -93.895)" fill="#eec1bb"/><path d="M141.526,184.35c9.41,4.968,42.733,51.574,47.637,53.889s42.459-28.124,42.459-28.124l6.315,10.778s-30.8,43.512-48.206,41.406S139,223.357,139,223.357Z" transform="translate(-25.791 -96.2)" fill="#263238"/><path d="M141.526,184.35c9.41,4.968,42.733,51.574,47.637,53.889s42.459-28.124,42.459-28.124l6.315,10.778s-30.8,43.512-48.206,41.406S139,223.357,139,223.357Z" transform="translate(-25.791 -96.2)" fill="#fff" opacity="0.1"/><path d="M182.01,198.423l2.61-2.463,6.841,11.578L189,212.274Z" transform="translate(21.738 -83.37)" fill="#ff725e"/><path d="M152.388,226.06c-7.789-7.431-13.388-13.6-13.388-13.6l.589-9.262,2.926-8.989a36.944,36.944,0,0,1,9.873,31.85Z" transform="translate(-25.791 -85.304)" opacity="0.2"/><path d="M142.007,380.712c-5.957-20.524-10.525-38.754-14.167-54.942a505.927,505.927,0,0,1,4.21-57.3S141.46,342.379,142.007,380.712Z" transform="translate(-38.123 -3.242)" opacity="0.2"/><path d="M187.626,283.681c2.631-46.311,1.452-71.825.253-84.56-1.305-13.578-3.41-14.062-3.41-14.062s-14.735-1.431-27.492-1.347a210.647,210.647,0,0,0-29.471,3.115,196.8,196.8,0,0,0-27.366,6.589c1.495,4.21,2.842,8.42,4.21,12.125,1.684,5.031,3.179,9.683,4.526,14.041,2.526,8.126,4.5,15.156,6.084,21.472a233.345,233.345,0,0,1,6.989,48.416S105.76,331.782,102.6,362.831l53.679,5.789,7.368-31.05,7.368,32.1,29.871-10.63Z" transform="translate(-68.733 -96.909)" fill="#263238"/><path d="M187.626,283.681c2.631-46.311,1.452-71.825.253-84.56-1.305-13.578-3.41-14.062-3.41-14.062s-14.735-1.431-27.492-1.347a210.647,210.647,0,0,0-29.471,3.115,196.8,196.8,0,0,0-27.366,6.589c1.495,4.21,2.842,8.42,4.21,12.125,1.684,5.031,3.179,9.683,4.526,14.041,2.526,8.126,4.5,15.156,6.084,21.472a233.345,233.345,0,0,1,6.989,48.416S105.76,331.782,102.6,362.831l53.679,5.789,7.368-31.05,7.368,32.1,29.871-10.63Z" transform="translate(-68.733 -96.909)" fill="#fff" opacity="0.1"/><path d="M110.814,228.468c-.716-3.536-1.558-7.3-2.589-11.346-.653-2.568-1.368-5.263-2.105-8.126,2.105-7.178,4.21-1.558,4.21-1.558A64.815,64.815,0,0,1,110.814,228.468Z" transform="translate(-62.125 -72.998)" opacity="0.2"/><path d="M116.83,193.164,143.5,240.886l6.315-51.216-12.1,15.177Z" transform="translate(-50.29 -90.321)" fill="#ff725e"/><path d="M124.092,183.9c-11.915,2.8-15.514,12.378-14.209,21.051l8.694-2.884a103.568,103.568,0,0,1,27.892,15.262s6.568-12.1,12.883-16.062l8.947,1.053S154.363,176.81,124.092,183.9Z" transform="translate(-58.246 -98.069)" fill="#ff725e"/><path d="M124.092,183.9c-11.915,2.8-15.514,12.378-14.209,21.051l8.694-2.884a103.568,103.568,0,0,1,27.892,15.262s6.568-12.1,12.883-16.062l8.947,1.053S154.363,176.81,124.092,183.9Z" transform="translate(-58.246 -98.069)" fill="#fff" opacity="0.1"/><path d="M140.374,197.548a12.627,12.627,0,0,0-2.105-.842c-1.516-1.2-3.368-4.084-3.263-11.115a53.867,53.867,0,0,1,.758-8.21L116.25,173.74s6.652,13.136,1.095,22.882c-1.916.842-3.052,2.105-2.842,3.642,1.452,11.283,25.7,22.187,25.7,22.187S152.163,204.032,140.374,197.548Z" transform="translate(-52.889 -107.924)" fill="#eec1bb"/><path d="M134.884,177.382a53.871,53.871,0,0,0-.758,8.21c-13.2,0-18.756-11.851-18.756-11.851Z" transform="translate(-51.903 -107.924)" opacity="0.2"/><path d="M120.5,144.968s22.9-2.9,27.113,15.514a28.4,28.4,0,0,1-10,28.692Z" transform="translate(-46.234 -139.904)" fill="#263238"/><path d="M130.171,149.575c16.967-.926,22.924,7.852,25.134,25.261,2.758,21.766-1.242,37.554-22.714,34.039C103.437,204.138,102.006,151.112,130.171,149.575Z" transform="translate(-57.99 -134.701)" fill="#eec1bb"/><path d="M126.21,161.38a36.524,36.524,0,0,0,5.326,6.778,4.652,4.652,0,0,1-4.357,2.105Z" transform="translate(-39.924 -121.583)" fill="#d4827d"/><path d="M123,162.25c.126,1.389-.547,2.589-1.474,2.652s-1.768-.989-1.873-2.379.547-2.589,1.474-2.652S122.9,160.84,123,162.25Z" transform="translate(-47.179 -123.253)" fill="#263238"/><path d="M120.17,160.64l2.947-1.41S121.791,161.882,120.17,160.64Z" transform="translate(-46.599 -123.959)" fill="#263238"/><path d="M131.213,161.46c.126,1.389-.547,2.589-1.474,2.652s-1.768-.989-1.874-2.379.547-2.589,1.474-2.652S131.108,160.071,131.213,161.46Z" transform="translate(-38.107 -124.126)" fill="#263238"/><path d="M128.38,159.86l2.926-1.41S130,161.1,128.38,159.86Z" transform="translate(-37.526 -124.821)" fill="#263238"/><path d="M124.65,155.44a8.862,8.862,0,0,0-7.22,2.968" transform="translate(-49.627 -128.168)" fill="none" stroke="#263238" stroke-linecap="round" stroke-linejoin="round" stroke-width="0.686"/><path d="M126.7,154.961a7.873,7.873,0,0,1,6.841,1.031" transform="translate(-39.383 -129.078)" fill="none" stroke="#263238" stroke-linecap="round" stroke-linejoin="round" stroke-width="0.686"/><path d="M115.816,182.616s7.157-14.378,5.368-25.071c0,0,32.881-15.577,36.4,18.461,0,0,1.642-30.481-27.576-29.576s-26.734,43.6-10.967,55.489C119.079,201.92,111.374,191.6,115.816,182.616Z" transform="translate(-60.601 -138.125)" fill="#263238"/><path d="M142.609,146.058s13.935-3.41,17.893.274-24.208,29.723-38.944,32.355c0,0-5.01,16.314-1.053,23.956,0,0-16.588-5.789-17.367-31.05S128.926,136.859,142.609,146.058Z" transform="translate(-65.438 -142.32)" fill="#263238"/><path d="M119.361,168.594a7.452,7.452,0,0,0-8.42-6.315c-5.221.842-7.136,11.788,6.084,13.662C118.94,176.172,119.908,174.278,119.361,168.594Z" transform="translate(-61.178 -120.671)" fill="#eec1bb"/><path d="M128.1,156.211s-5.789-14.735-21.324-13.683-17.893,25.261-9.725,43.154,2.631,23.682,2.631,23.682,8.673-1.053,8.673-17.093a57.763,57.763,0,0,1,.526,10.252s5.789-8.147.274-23.682,12.1-8.42,12.1-8.42Z" transform="translate(-77.242 -142.474)" fill="#263238"/><path d="M143.972,145s-7.368,23.682-27.092,30.8" transform="translate(-50.235 -139.684)" fill="none" stroke="#263238" stroke-linecap="round" stroke-linejoin="round" stroke-width="0.686"/><path d="M120.38,168.5a13.662,13.662,0,0,0,9.725,3.958" transform="translate(-46.367 -113.715)" fill="none" stroke="#263238" stroke-linecap="round" stroke-linejoin="round" stroke-width="0.686"/><path d="M129.329,164.274a3.768,3.768,0,1,1-3.768-4.084,3.915,3.915,0,0,1,3.768,4.084Z" transform="translate(-44.791 -122.898)" fill="none" stroke="#263238" stroke-linecap="round" stroke-linejoin="round" stroke-width="0.5"/><path d="M135.64,163.943a3.768,3.768,0,1,1-3.747-4.063A3.936,3.936,0,0,1,135.64,163.943Z" transform="translate(-37.819 -123.24)" fill="none" stroke="#263238" stroke-linecap="round" stroke-linejoin="round" stroke-width="0.5"/><path d="M125.38,163.226s1.958-4.21,5.789-.674" transform="translate(-40.842 -121.85)" fill="none" stroke="#263238" stroke-linecap="round" stroke-linejoin="round" stroke-width="0.5"/><path d="M134.165,162.417s-21.051-.674-23.535-.526" transform="translate(-57.141 -121.041)" fill="none" stroke="#263238" stroke-linecap="round" stroke-linejoin="round" stroke-width="0.5"/><path d="M112.238,211.256,111.27,265a2.105,2.105,0,0,0,2.358,2.105l35.386-2.821a2.105,2.105,0,0,0,2.105-2.105l1.705-53.3a2.105,2.105,0,0,0-2.316-2.231l-36.123,2.337a2.1,2.1,0,0,0-2.147,2.273Z" transform="translate(-56.434 -71.574)" fill="#ff725e"/><path d="M112.238,211.256,111.27,265a2.105,2.105,0,0,0,2.358,2.105l35.386-2.821a2.105,2.105,0,0,0,2.105-2.105l1.705-53.3a2.105,2.105,0,0,0-2.316-2.231l-36.123,2.337a2.1,2.1,0,0,0-2.147,2.273Z" transform="translate(-56.434 -71.574)" fill="#fff" opacity="0.6"/><path d="M112.74,211.77l-.968,53.742a2.105,2.105,0,0,0,2.358,2.21l35.386-2.8a2.105,2.105,0,0,0,2.105-2.105l1.705-53.279a2.105,2.105,0,0,0-2.316-2.252l-36.228,2.358a2.105,2.105,0,0,0-2.042,2.126Z" transform="translate(-55.883 -70.866)" fill="#ff725e"/><path d="M112.74,211.77l-.968,53.742a2.105,2.105,0,0,0,2.358,2.21l35.386-2.8a2.105,2.105,0,0,0,2.105-2.105l1.705-53.279a2.105,2.105,0,0,0-2.316-2.252l-36.228,2.358a2.105,2.105,0,0,0-2.042,2.126Z" transform="translate(-55.883 -70.866)" fill="#fff" opacity="0.7"/><path d="M129.355,224.343a5.263,5.263,0,1,1-5.263-5.263h.21a5.242,5.242,0,0,0,4.989,4.4,5.662,5.662,0,0,1,.063.863Z" transform="translate(-48.08 -57.821)" opacity="0.2"/><path d="M97.13,242.758l25.892-16.314s1.979-5.473,4.379-6.589,18.167-3.179,19.682-1.621,1.41,13.914-1.558,15.514-16.84,1.453-18.167.905L98.351,256.9Z" transform="translate(-72.059 -59.375)" fill="#eec1bb"/><path d="M116.606,188.32s16.925,24.587,14.462,45.638l-22.461,37.2,15.093-7.726,6.841,12.9s-17.367,26.734-39.47,20.419S116.606,188.32,116.606,188.32Z" transform="translate(-85.22 -91.812)" fill="#263238"/><path d="M116.606,188.32s16.925,24.587,14.462,45.638l-22.461,37.2,15.093-7.726,6.841,12.9s-17.367,26.734-39.47,20.419S116.606,188.32,116.606,188.32Z" transform="translate(-85.22 -91.812)" fill="#fff" opacity="0.1"/><path d="M102.75,224.5l8.589,15.956,1.937-4.568-6.841-12.967Z" transform="translate(-65.849 -53.577)" fill="#ff725e"/></g><g transform="translate(302.991 268.257)"><path d="M201.116,202.851a9.725,9.725,0,1,1,9.7-9.725,9.725,9.725,0,0,1-9.7,9.725Z" transform="translate(-153.521 -140.457)" fill="#ff725e"/><path d="M225.427,268.253H225.2a52.31,52.31,0,0,1-25.913-7.3l5.284-9.3a41.386,41.386,0,0,0,20.63,5.81Zm25.892-7.789-5.3-9.052a41.512,41.512,0,0,0,15.072-15.178l9.115,5.242A51.974,51.974,0,0,1,251.319,260.464Zm-70.961-18.945a51.679,51.679,0,0,1-6.968-25.892h10.525a40.923,40.923,0,0,0,5.557,20.63Zm86.307-26.082a41.154,41.154,0,0,0-5.6-20.609l9.094-5.3a51.889,51.889,0,0,1,7.031,25.892Zm-77.256-20.356-9.094-5.263a52.121,52.121,0,0,1,18.946-18.946l5.284,9.094a41.891,41.891,0,0,0-15.135,15.114Zm56.373-15.241a41.723,41.723,0,0,0-20.545-5.894L225.2,163h0A52.248,52.248,0,0,1,251,170.3Z" transform="translate(-173.39 -163)" fill="#ff725e"/><g opacity="0.6"><path d="M225.427,268.253H225.2a52.31,52.31,0,0,1-25.913-7.3l5.284-9.3a41.386,41.386,0,0,0,20.63,5.81Zm25.892-7.789-5.3-9.052a41.512,41.512,0,0,0,15.072-15.178l9.115,5.242A51.974,51.974,0,0,1,251.319,260.464Zm-70.961-18.945a51.679,51.679,0,0,1-6.968-25.892h10.525a40.923,40.923,0,0,0,5.557,20.63Zm86.307-26.082a41.154,41.154,0,0,0-5.6-20.609l9.094-5.3a51.889,51.889,0,0,1,7.031,25.892Zm-77.256-20.356-9.094-5.263a52.121,52.121,0,0,1,18.946-18.946l5.284,9.094a41.891,41.891,0,0,0-15.135,15.114Zm56.373-15.241a41.723,41.723,0,0,0-20.545-5.894L225.2,163h0A52.248,52.248,0,0,1,251,170.3Z" transform="translate(-173.39 -163)" fill="#fff"/></g></g><g transform="translate(343.895 67.75)"><path d="M209.818,207.794a12.967,12.967,0,1,1,12.946-12.967,12.967,12.967,0,0,1-12.946,12.967Z" transform="translate(-188.392 58.348)" fill="#ff725e"/><path d="M209.818,207.794a12.967,12.967,0,1,1,12.946-12.967,12.967,12.967,0,0,1-12.946,12.967Z" transform="translate(-188.392 58.348)" fill="#fff" opacity="0.5"/><circle cx="21.324" cy="21.324" r="21.324" transform="translate(0 269.015) rotate(-76.72)" fill="none" stroke="#ff725e" stroke-miterlimit="10" stroke-width="3"/><rect width="353.65" height="4.21" transform="translate(44.582 251.028)" fill="#ff725e"/><path d="M208.21,260.774H204V235.514a2.105,2.105,0,0,1,.61-1.495L333.377,105.61a2.105,2.105,0,0,1,1.495-.61H452.4v4.21H335.734L208.21,236.377Z" transform="translate(-180.468 -26.587)" fill="#ff725e"/><path d="M513.444,370.615H355.564A2.105,2.105,0,0,1,354.07,370L204.61,220.545a2.105,2.105,0,0,1-.61-1.495V198h4.21v20.188L356.427,366.4H513.444Z" transform="translate(-180.468 76.184)" fill="#ff725e"/><path d="M376,247.538H291.44a2.1,2.1,0,0,1-1.474-.61L233.13,190.449l2.968-2.989,56.226,55.868H376Z" transform="translate(-148.278 64.537)" fill="#ff725e"/><path d="M274.779,220.6l-2.989-2.968,56.647-57.026a2.211,2.211,0,0,1,1.495-.61h85.444v4.21h-84.56Z" transform="translate(-105.557 34.192)" fill="#ff725e"/><path d="M619.849,157.681H285.629a2.1,2.1,0,0,1-1.495-.631L250.58,123.158l2.989-2.968,32.944,33.281H619.849Z" transform="translate(-128.995 -9.801)" fill="#ff725e"/><path d="M285.884,137.331,283,134.342,337.731,79.61a2.1,2.1,0,0,1,1.495-.61h175.33v4.21H340Z" transform="translate(-93.169 -55.318)" fill="#ff725e"/><path d="M345.529,400.829l-84.918-84.9a2.106,2.106,0,0,1-.61-1.41V264h4.21v49.658l84.2,84.2Z" transform="translate(-118.585 149.118)" fill="#ff725e"/><path d="M293.109,310.741l-2.989-2.926,55.826-56.184a2.21,2.21,0,0,1,1.495-.61H559.315v4.21H348.325Z" transform="translate(-85.301 134.774)" fill="#ff725e"/><path d="M466.454,341.008h-94.37a2.105,2.105,0,0,1-1.495-.61l-59.3-59.3,2.989-2.968L372.947,336.8h93.507Z" transform="translate(-61.907 164.732)" fill="#ff725e"/><circle cx="9.641" cy="9.641" r="9.641" transform="translate(411.746 16.146)" fill="#ff725e"/><path d="M342.692,139.963a22.272,22.272,0,1,1,22.271-22.271A22.271,22.271,0,0,1,342.692,139.963Zm0-40.333a18.061,18.061,0,1,0,18.061,18.061A18.061,18.061,0,0,0,342.692,99.63Z" transform="translate(-51.818 -37.173)" fill="#ff725e"/><circle cx="9.641" cy="9.641" r="9.641" transform="translate(281.233 70.877)" fill="#ff725e"/><path d="M440.7,142.242a9.641,9.641,0,1,1-2.816-6.831,9.641,9.641,0,0,1,2.816,6.831Z" transform="translate(59.793 3.891)" fill="#ff725e"/><circle cx="9.641" cy="9.641" r="9.641" transform="translate(300.178 186.655)" fill="#ff725e"/><path d="M402.691,221.963a22.272,22.272,0,1,1,22.271-22.271,22.271,22.271,0,0,1-22.271,22.271Zm0-40.333a18.061,18.061,0,1,0,18.061,18.061A18.061,18.061,0,0,0,402.691,181.63Z" transform="translate(14.486 53.442)" fill="#ff725e"/><circle cx="9.641" cy="9.641" r="9.641" transform="translate(407.536 243.492)" fill="#ff725e"/><circle cx="9.641" cy="9.641" r="9.641" transform="translate(218.081 300.329)" fill="#ff725e"/><circle cx="9.641" cy="9.641" r="9.641" transform="translate(464.373 378.216)" fill="#ff725e"/><path d="M371.714,312.825a22.293,22.293,0,1,1,22.271-22.293,22.293,22.293,0,0,1-22.271,22.293Zm0-40.354a18.082,18.082,0,1,0,18.061,18.061,18.083,18.083,0,0,0-18.061-18.061Z" transform="translate(-19.793 153.803)" fill="#ff725e"/><path d="M374.7,283.891a9.641,9.641,0,1,1-9.641-9.641,9.641,9.641,0,0,1,9.641,9.641Z" transform="translate(-13.141 160.444)" fill="#ff725e"/><circle cx="9.641" cy="9.641" r="9.641" transform="translate(394.906 493.994)" fill="#ff725e"/><path d="M316.064,333.391a9.662,9.662,0,1,1-9.662-9.641,9.662,9.662,0,0,1,9.662,9.641Z" transform="translate(-77.985 215.145)" fill="#ff725e"/><rect width="41.512" height="54.205" rx="1.51" transform="translate(443.617)" fill="#ff725e"/><rect width="41.512" height="54.205" rx="1.51" transform="translate(443.617)" fill="#fff" opacity="0.6"/><rect width="29.113" height="2.926" transform="translate(449.806 7.705)" fill="#ff725e"/><rect width="29.113" height="2.926" transform="translate(449.806 12.82)" fill="#ff725e"/><rect width="29.113" height="2.926" transform="translate(449.806 17.956)" fill="#ff725e"/><rect width="29.113" height="2.926" transform="translate(449.806 23.071)" fill="#ff725e"/><rect width="29.113" height="2.926" transform="translate(449.806 28.208)" fill="#ff725e"/><rect width="29.113" height="2.926" transform="translate(449.806 33.344)" fill="#ff725e"/><rect width="29.113" height="2.926" transform="translate(449.806 38.459)" fill="#ff725e"/><rect width="18.861" height="2.926" transform="translate(449.806 43.596)" fill="#ff725e"/><rect width="41.512" height="54.205" rx="1.51" transform="translate(248.015 287.425)" fill="#ff725e"/><rect width="41.512" height="54.205" rx="1.51" transform="translate(248.015 287.425)" fill="#fff" opacity="0.6"/><rect width="29.113" height="2.926" transform="translate(254.204 295.108)" fill="#ff725e"/><rect width="29.113" height="2.926" transform="translate(254.204 300.244)" fill="#ff725e"/><rect width="29.113" height="2.926" transform="translate(254.204 305.36)" fill="#ff725e"/><rect width="29.113" height="2.926" transform="translate(254.204 310.496)" fill="#ff725e"/><rect width="29.113" height="2.926" transform="translate(254.204 315.611)" fill="#ff725e"/><rect width="29.113" height="2.926" transform="translate(254.204 320.748)" fill="#ff725e"/><rect width="29.113" height="2.926" transform="translate(254.204 325.884)" fill="#ff725e"/><rect width="18.861" height="2.926" transform="translate(254.204 330.999)" fill="#ff725e"/><rect width="41.512" height="54.205" rx="1.51" transform="translate(490.854 345.756)" fill="#ff725e"/><rect width="41.512" height="54.205" rx="1.51" transform="translate(490.854 345.756)" fill="#fff" opacity="0.6"/><rect width="29.113" height="2.926" transform="translate(497.043 353.46)" fill="#ff725e"/><rect width="29.113" height="2.926" transform="translate(497.043 358.576)" fill="#ff725e"/><rect width="29.113" height="2.926" transform="translate(497.043 363.712)" fill="#ff725e"/><rect width="29.113" height="2.926" transform="translate(497.043 368.848)" fill="#ff725e"/><rect width="29.113" height="2.926" transform="translate(497.043 373.964)" fill="#ff725e"/><rect width="29.113" height="2.926" transform="translate(497.043 379.1)" fill="#ff725e"/><rect width="29.113" height="2.926" transform="translate(497.043 384.215)" fill="#ff725e"/><rect width="18.861" height="2.926" transform="translate(497.043 389.352)" fill="#ff725e"/><rect width="41.512" height="54.205" rx="1.51" transform="translate(507.316 103.927)" fill="#ff725e"/><rect width="41.512" height="54.205" rx="1.51" transform="translate(507.316 103.927)" fill="#fff" opacity="0.6"/><rect width="29.113" height="2.926" transform="translate(513.505 111.631)" fill="#ff725e"/><rect width="29.113" height="2.926" transform="translate(513.505 116.747)" fill="#ff725e"/><rect width="29.113" height="2.926" transform="translate(513.505 121.883)" fill="#ff725e"/><rect width="29.113" height="2.926" transform="translate(513.505 127.019)" fill="#ff725e"/><rect width="29.113" height="2.926" transform="translate(513.505 132.134)" fill="#ff725e"/><rect width="29.113" height="2.926" transform="translate(513.505 137.271)" fill="#ff725e"/><rect width="29.113" height="2.926" transform="translate(513.505 142.386)" fill="#ff725e"/><rect width="18.861" height="2.926" transform="translate(513.505 147.522)" fill="#ff725e"/><rect width="41.512" height="54.205" rx="1.51" transform="translate(248.794 537.758)" fill="#ff725e"/><rect width="41.512" height="54.205" rx="1.51" transform="translate(248.794 537.758)" fill="#fff" opacity="0.6"/><rect width="29.113" height="2.926" transform="translate(254.983 545.463)" fill="#ff725e"/><rect width="29.113" height="2.926" transform="translate(254.983 550.578)" fill="#ff725e"/><rect width="29.113" height="2.926" transform="translate(254.983 555.714)" fill="#ff725e"/><rect width="29.113" height="2.926" transform="translate(254.983 560.83)" fill="#ff725e"/><rect width="29.113" height="2.926" transform="translate(254.983 565.966)" fill="#ff725e"/><rect width="29.113" height="2.926" transform="translate(254.983 571.102)" fill="#ff725e"/><rect width="29.113" height="2.926" transform="translate(254.983 576.218)" fill="#ff725e"/><rect width="18.861" height="2.926" transform="translate(254.983 581.354)" fill="#ff725e"/><rect width="96.833" height="96.833" rx="1.54" transform="translate(448.627 203.559)" fill="#ff725e"/><circle cx="32.628" cy="32.628" r="32.628" transform="translate(464.415 219.347)" fill="#fff" opacity="0.5"/><path d="M446.025,204.6h32.628a32.586,32.586,0,1,1-16.314-28.313Z" transform="translate(51.019 47.377)" fill="#fff" opacity="0.7"/><circle cx="25.261" cy="25.261" r="25.261" transform="translate(471.783 226.715)" fill="#ff725e"/><circle cx="25.261" cy="25.261" r="25.261" transform="translate(471.783 226.715)" fill="#fff" opacity="0.3"/><text transform="translate(486.034 255.271)" fill="#fff" font-size="10" font-family="SegoeUI, Segoe UI"><tspan x="0" y="0" letter-spacing="0.019em">8</tspan><tspan y="0">0%</tspan></text><rect width="73.677" height="73.677" rx="1.17" transform="translate(381.076 407.855)" fill="#ff725e"/><rect width="9.473" height="4.821" transform="translate(431.913 469.175)" fill="#fff" opacity="0.5"/><rect width="9.473" height="4.821" transform="translate(431.913 421.075)" fill="#fff"/><rect width="9.473" height="4.821" transform="translate(431.913 429.095)" fill="#fff"/><rect width="9.473" height="4.821" transform="translate(431.913 437.115)" fill="#fff" opacity="0.75"/><rect width="9.473" height="4.821" transform="translate(431.913 445.115)" fill="#fff" opacity="0.5"/><rect width="9.473" height="4.821" transform="translate(431.913 453.135)" fill="#fff" opacity="0.5"/><rect width="9.473" height="4.821" transform="translate(431.913 461.155)" fill="#fff" opacity="0.5"/><rect width="9.473" height="4.821" transform="translate(419.03 469.175)" fill="#fff" opacity="0.5"/><rect width="9.473" height="4.821" transform="translate(419.03 445.115)" fill="#fff"/><rect width="9.473" height="4.821" transform="translate(419.03 453.135)" fill="#fff" opacity="0.75"/><rect width="9.473" height="4.821" transform="translate(419.03 461.155)" fill="#fff" opacity="0.5"/><rect width="9.473" height="4.821" transform="translate(406.126 469.175)" fill="#fff" opacity="0.5"/><rect width="9.473" height="4.821" transform="translate(406.126 437.115)" fill="#fff"/><rect width="9.473" height="4.821" transform="translate(406.126 445.115)" fill="#fff" opacity="0.75"/><rect width="9.473" height="4.821" transform="translate(406.126 453.135)" fill="#fff" opacity="0.5"/><rect width="9.473" height="4.821" transform="translate(406.126 461.155)" fill="#fff" opacity="0.5"/><rect width="9.473" height="4.821" transform="translate(393.243 469.175)" fill="#fff" opacity="0.5"/><rect width="9.473" height="4.821" transform="translate(393.243 453.135)" fill="#fff"/><rect width="9.473" height="4.821" transform="translate(393.243 461.155)" fill="#fff" opacity="0.75"/><rect width="73.677" height="73.677" rx="1.17" transform="translate(324.723 53.321)" fill="#ff725e"/><path d="M382.282,115.643v-4.61l-2.379-.21a11.913,11.913,0,0,0-1.768-4.21l1.516-1.852-3.242-3.389-1.852,1.537a12.061,12.061,0,0,0-4.21-1.768l-.232-2.379h-4.61l-.211,2.379a12.166,12.166,0,0,0-4.21,1.768l-1.831-1.537-3.263,3.263,1.516,1.852a12.631,12.631,0,0,0-1.768,4.21l-2.358.21v4.61l2.358.232a12.9,12.9,0,0,0,1.768,4.21l-1.516,1.852,3.263,3.263,1.831-1.537a12.168,12.168,0,0,0,4.21,1.768l.21,2.379h4.61l.232-2.379a12.06,12.06,0,0,0,4.21-1.768l1.852,1.537,3.242-3.263-1.516-1.852a12.06,12.06,0,0,0,1.768-4.21Zm-14.5,3.936a6.315,6.315,0,1,1,6.315-6.315,6.315,6.315,0,0,1-6.315,6.315Z" transform="translate(-15.395 -33.482)" fill="#fff" opacity="0.9"/><path d="M387.935,119.918V116.3l-1.852-.168a9.811,9.811,0,0,0-1.389-3.347l1.2-1.431-2.547-2.568-1.453,1.2a9.7,9.7,0,0,0-3.326-1.389l-.189-1.852h-3.6l-.189,1.852a9.7,9.7,0,0,0-3.326,1.389l-1.453-1.2-2.547,2.568,1.2,1.431a9.409,9.409,0,0,0-1.389,3.347l-1.874.168v3.621l1.874.168a9.3,9.3,0,0,0,1.389,3.326l-1.2,1.452,2.547,2.547,1.453-1.179a9.662,9.662,0,0,0,3.326,1.368l.189,1.873h3.6l.189-1.873a9.662,9.662,0,0,0,3.326-1.368l1.453,1.179,2.547-2.547-1.2-1.452a9.7,9.7,0,0,0,1.389-3.326Zm-11.367,3.073a3.52,3.52,0,1,0-.042-.063Z" transform="translate(-2.333 -24.664)" fill="#fff" opacity="0.6"/><path d="M377.089,123.63V120.6l-1.558-.147a8.189,8.189,0,0,0-1.179-2.821l1.01-1.2-2.105-2.105-1.221,1.01a7.557,7.557,0,0,0-2.8-1.179l-.147-1.558h-3.031l-.147,1.558a7.852,7.852,0,0,0-2.8,1.179l-1.2-1.01-2.105,2.105.989,1.2a8.147,8.147,0,0,0-1.158,2.821l-1.558.147v3.031l1.558.147a8.211,8.211,0,0,0,1.158,2.8l-.989,1.2,2.105,2.105,1.2-.989a8.21,8.21,0,0,0,2.8,1.158l.147,1.558h3.031l.147-1.558a7.872,7.872,0,0,0,2.8-1.158l1.221.989,2.105-2.105-1.01-1.2a8.252,8.252,0,0,0,1.179-2.8Zm-9.557,2.589a4.1,4.1,0,1,1,4.1-4.1,4.21,4.21,0,0,1-4.1,4.1Z" transform="translate(-10.201 -18.188)" fill="#fff" opacity="0.4"/><rect width="64.731" height="42.101" transform="translate(326.534 174.72)" fill="#ff725e"/><rect width="64.731" height="42.101" transform="translate(326.534 174.72)" fill="#fff" opacity="0.6"/><rect width="59.994" height="32.102" transform="translate(328.891 182.614)" fill="#ff725e"/><rect width="44.375" height="1.389" transform="translate(333.775 187.413)" fill="#fff"/><rect width="21.303" height="1.389" transform="translate(333.775 191.644)" fill="#fff"/><rect width="26.818" height="1.389" transform="translate(333.775 195.876)" fill="#fff"/><rect width="9.452" height="1.389" transform="translate(333.775 200.107)" fill="#fff"/><rect width="6.126" height="1.389" transform="translate(333.775 204.338)" fill="#fff"/><rect width="64.731" height="42.101" transform="translate(429.681 495.741)" fill="#ff725e"/><rect width="64.731" height="42.101" transform="translate(429.681 495.741)" fill="#fff" opacity="0.6"/><rect width="59.994" height="32.102" transform="translate(432.039 503.635)" fill="#ff725e"/><rect width="44.375" height="1.389" transform="translate(436.923 508.435)" fill="#fff"/><rect width="21.303" height="1.389" transform="translate(436.923 512.666)" fill="#fff"/><rect width="26.818" height="1.389" transform="translate(436.923 516.897)" fill="#fff"/><rect width="9.452" height="1.389" transform="translate(436.923 521.128)" fill="#fff"/><rect width="6.126" height="1.389" transform="translate(436.923 525.359)" fill="#fff"/><g transform="translate(1.197 16.146)" opacity="0.4"><rect width="357.86" height="4.21" transform="translate(39.175 234.882)" fill="#fff"/><path d="M208.21,260.774H204V235.514a2.105,2.105,0,0,1,.61-1.495L333.377,105.61a2.105,2.105,0,0,1,1.495-.61H452.4v4.21H335.734L208.21,236.377Z" transform="translate(-181.665 -42.732)" fill="#fff"/><path d="M513.444,370.615H355.564A2.105,2.105,0,0,1,354.07,370L204.61,220.545a2.105,2.105,0,0,1-.61-1.495V198h4.21v20.188L356.427,366.4H513.444Z" transform="translate(-181.665 60.038)" fill="#fff"/><path d="M376,247.538H291.44a2.1,2.1,0,0,1-1.474-.61L233.13,190.449l2.968-2.989,56.226,55.868H376Z" transform="translate(-149.475 48.391)" fill="#fff"/><path d="M274.779,220.6l-2.989-2.968,56.647-57.026a2.211,2.211,0,0,1,1.495-.61h85.444v4.21h-84.56Z" transform="translate(-106.753 18.046)" fill="#fff"/><path d="M619.849,157.681H285.629a2.1,2.1,0,0,1-1.495-.631L250.58,123.158l2.989-2.968,32.944,33.281H619.849Z" transform="translate(-130.192 -25.947)" fill="#fff"/><path d="M285.884,137.331,283,134.342,337.731,79.61a2.1,2.1,0,0,1,1.495-.61h175.33v4.21H340Z" transform="translate(-94.366 -71.464)" fill="#fff"/><path d="M345.529,400.829l-84.918-84.9a2.106,2.106,0,0,1-.61-1.41V264h4.21v49.658l84.2,84.2Z" transform="translate(-119.782 132.972)" fill="#fff"/><path d="M293.109,310.741l-2.989-2.926,55.826-56.184a2.21,2.21,0,0,1,1.495-.61H559.315v4.21H348.325Z" transform="translate(-86.498 118.628)" fill="#fff"/><path d="M466.454,341.008h-94.37a2.105,2.105,0,0,1-1.495-.61l-59.3-59.3,2.989-2.968L372.947,336.8h93.507Z" transform="translate(-63.104 148.586)" fill="#fff"/><circle cx="9.641" cy="9.641" r="9.641" transform="translate(410.55)" fill="#fff"/><path d="M342.692,139.963a22.272,22.272,0,1,1,22.271-22.271A22.271,22.271,0,0,1,342.692,139.963Zm0-40.333a18.061,18.061,0,1,0,18.061,18.061A18.061,18.061,0,0,0,342.692,99.63Z" transform="translate(-53.014 -53.319)" fill="#fff"/><path d="M440.7,142.242a9.641,9.641,0,1,1-2.816-6.831,9.641,9.641,0,0,1,2.816,6.831Z" transform="translate(58.596 -12.255)" fill="#fff"/><circle cx="9.641" cy="9.641" r="9.641" transform="translate(298.981 170.51)" fill="#fff"/><path d="M402.691,221.963a22.272,22.272,0,1,1,22.271-22.271,22.271,22.271,0,0,1-22.271,22.271Zm0-40.333a18.061,18.061,0,1,0,18.061,18.061A18.061,18.061,0,0,0,402.691,181.63Z" transform="translate(13.289 37.296)" fill="#fff"/><circle cx="9.641" cy="9.641" r="9.641" transform="translate(216.884 284.183)" fill="#fff"/><circle cx="9.641" cy="9.641" r="9.641" transform="translate(463.176 362.07)" fill="#fff"/><path d="M371.714,312.825a22.293,22.293,0,1,1,22.271-22.293,22.293,22.293,0,0,1-22.271,22.293Zm0-40.354a18.082,18.082,0,1,0,18.061,18.061,18.083,18.083,0,0,0-18.061-18.061Z" transform="translate(-20.99 137.657)" fill="#fff"/><circle cx="9.641" cy="9.641" r="9.641" transform="translate(393.709 477.848)" fill="#fff"/><path d="M316.064,333.391a9.662,9.662,0,1,1-9.662-9.641,9.662,9.662,0,0,1,9.662,9.641Z" transform="translate(-79.182 198.999)" fill="#fff"/><path d="M217.83,225.354a24.482,24.482,0,1,1,17.353-7.171,24.482,24.482,0,0,1-17.353,7.171Zm0-42.648A18.167,18.167,0,1,0,236,200.872a18.167,18.167,0,0,0-18.167-18.167Z" transform="translate(-193.39 36.158)" fill="#fff"/></g></g></g></svg>