<?xml version="1.0" standalone="no"?><svg xmlns="http://www.w3.org/2000/svg" viewBox="0 0 1440 320"><path fill="#e84545" fill-opacity="1" d="M0,224L17.1,202.7C34.3,181,69,139,103,138.7C137.1,139,171,181,206,181.3C240,181,274,139,309,122.7C342.9,107,377,117,411,128C445.7,139,480,149,514,176C548.6,203,583,245,617,224C651.4,203,686,117,720,96C754.3,75,789,117,823,149.3C857.1,181,891,203,926,197.3C960,192,994,160,1029,165.3C1062.9,171,1097,213,1131,213.3C1165.7,213,1200,171,1234,165.3C1268.6,160,1303,192,1337,218.7C1371.4,245,1406,267,1423,277.3L1440,288L1440,0L1422.9,0C1405.7,0,1371,0,1337,0C1302.9,0,1269,0,1234,0C1200,0,1166,0,1131,0C1097.1,0,1063,0,1029,0C994.3,0,960,0,926,0C891.4,0,857,0,823,0C788.6,0,754,0,720,0C685.7,0,651,0,617,0C582.9,0,549,0,514,0C480,0,446,0,411,0C377.1,0,343,0,309,0C274.3,0,240,0,206,0C171.4,0,137,0,103,0C68.6,0,34,0,17,0L0,0Z"></path></svg>